<svg width="1920" height="469" viewBox="0 0 1920 469" fill="none" xmlns="http://www.w3.org/2000/svg">
<rect width="1920" height="467" fill="#FAFAFA"/>
<mask id="mask0_2_15412" style="mask-type:alpha" maskUnits="userSpaceOnUse" x="0" y="2" width="1920" height="467">
<rect y="2" width="1920" height="467" fill="#E3F1E9"/>
</mask>
<g mask="url(#mask0_2_15412)">
<path d="M671.647 213.194C663.45 209.078 652.774 207.674 643.788 209.43C637.601 210.644 629.217 214.32 629.705 221.943C630.14 228.621 637.476 232.513 643.362 233.325C649.975 234.227 657.252 233.416 663.45 230.879C666.505 229.63 669.6 227.782 671.504 224.982C673.509 222.044 673.725 218.65 672.747 215.292C672.217 213.466 669.509 214.623 670.024 216.431C673.506 228.466 654.17 231.073 646.323 230.656C641.276 230.384 634.915 228.658 632.975 223.304C630.757 217.21 638.589 213.517 643.236 212.549C652.15 210.699 662.407 211.833 670.589 215.931C672.262 216.775 673.353 214.042 671.647 213.194Z" fill="#DDDDDD"/>
<path d="M670.714 215.324C664.302 217.969 657.27 218.558 650.446 219.374C648.557 219.594 648.967 222.529 650.841 222.291C657.905 221.437 665.199 220.763 671.84 218.029C673.587 217.322 672.465 214.584 670.714 215.324Z" fill="#DDDDDD"/>
<path d="M675.362 236.273C671.451 240.25 667.661 244.343 664.11 248.666C660.049 253.598 655.58 259.116 653.629 265.297C652.942 267.476 652.552 269.96 653.615 272.087C654.786 274.429 657.347 275.417 659.806 275.737C663.667 276.248 667.885 275.764 671.304 273.872C675.226 271.708 678.19 268.2 680.294 264.318C684.789 256.003 686.159 243.645 678.329 236.824C676.906 235.575 675.154 237.958 676.562 239.188C682.682 244.507 681.574 254.331 678.657 260.997C677.048 264.672 674.611 268.127 671.308 270.435C668.335 272.516 664.77 273.148 661.192 272.924C660.028 272.847 658.805 272.696 657.746 272.179C657.08 271.862 656.524 271.34 656.294 270.893C655.546 269.475 655.947 267.58 656.541 265.892C658.44 260.409 662.323 255.556 665.923 251.104C668.057 248.484 670.281 245.941 672.549 243.455C673.439 242.492 674.329 241.528 675.252 240.569C675.654 240.166 676.022 239.759 676.424 239.356C676.77 238.996 677.038 238.727 677.172 238.593C678.478 237.245 676.686 234.911 675.362 236.273Z" fill="#DDDDDD"/>
<path d="M676.352 238.729C674.31 244.833 671.09 250.421 668.335 256.185C667.52 257.895 670.253 258.988 671.068 257.277C673.823 251.514 677.043 245.925 679.085 239.822C679.69 238.035 676.943 236.924 676.352 238.729Z" fill="#DDDDDD"/>
<path d="M644.116 243.276C636.4 243.295 627.869 243.531 621.007 247.513C616.817 249.946 612.364 253.839 610.713 258.532C610.013 260.542 609.943 262.747 611.16 264.574C612.561 266.676 615.102 267.56 617.456 268.053C623.606 269.316 629.817 266.261 634.403 262.384C639.419 258.141 643.782 252.257 645.27 245.75C645.681 243.906 642.756 243.561 642.363 245.391C641.292 250.138 638.186 254.534 634.844 257.977C631.216 261.705 626.454 264.973 621.123 265.37C617.771 265.626 612.022 264.379 613.362 259.899C614.514 255.984 618.302 252.729 621.603 250.571C627.963 246.444 636.409 246.214 643.739 246.198C645.618 246.196 645.994 243.274 644.116 243.276Z" fill="#DDDDDD"/>
<path d="M641.628 244.683C637.287 248.071 632.621 250.965 628.28 254.353C626.796 255.511 628.588 257.845 630.091 256.673C634.432 253.285 639.098 250.391 643.438 247.003C644.941 245.831 643.13 243.511 641.628 244.683Z" fill="#DDDDDD"/>
<path d="M1249.93 265.054C1261.56 282.9 1284.81 299.579 1310.71 294.927C1311.42 294.804 1311.86 294.118 1311.82 293.52C1311.39 287.154 1307.32 281.535 1303.59 276.647C1299.13 270.799 1294.18 265.788 1287.57 261.874C1281.48 258.263 1275.13 256.307 1267.5 255.897C1263.68 255.684 1259.81 255.777 1255.94 255.944C1254.22 256.026 1252.47 256.117 1250.74 256.224C1249.52 256.298 1248.09 256.119 1246.94 256.675C1246.27 257.002 1246.04 257.686 1246.26 258.234C1247.17 260.687 1248.75 262.754 1249.93 265.054C1250.59 266.32 1252.95 265.199 1252.28 263.917C1251.1 261.617 1249.52 259.549 1248.6 257.122C1248.37 257.65 1248.13 258.178 1247.91 258.681C1248.68 258.308 1250.87 258.516 1251.85 258.462C1253.47 258.368 1255.11 258.291 1256.72 258.222C1260.2 258.082 1263.7 258.015 1267.14 258.213C1274.48 258.62 1280.51 260.575 1286.36 264.082C1292.47 267.741 1297.02 272.393 1301.19 277.786C1304.82 282.466 1308.86 287.939 1309.29 294.092C1309.66 293.615 1310.02 293.162 1310.4 292.685C1297.92 294.918 1286.02 291.526 1276.21 286.031C1266.44 280.559 1258.13 272.891 1252.27 263.901C1251.5 262.731 1249.14 263.852 1249.93 265.054Z" fill="#DDDDDD"/>
<path d="M1249.41 259.899C1261.09 264.229 1272 269.845 1282.36 276.101C1286.82 278.796 1291.43 281.262 1295.99 283.829C1300.75 286.517 1305.55 289.442 1308.73 293.708C1309.59 294.857 1311.61 293.227 1310.75 292.077C1307.68 287.978 1303.12 285.034 1298.55 282.41C1293.69 279.611 1288.72 277.007 1283.93 274.114C1273.38 267.751 1262.29 262.104 1250.41 257.692C1248.94 257.155 1247.98 259.384 1249.41 259.899Z" fill="#DDDDDD"/>
<path d="M1303.08 290.617C1290.49 286.608 1277.52 282.741 1267.22 275.209C1266.03 274.338 1264.49 276.332 1265.68 277.203C1276.13 284.843 1289.31 288.782 1302.09 292.839C1303.58 293.311 1304.55 291.097 1303.08 290.617Z" fill="#DDDDDD"/>
<path d="M1293.12 273.571C1287.31 269.192 1280.43 266.398 1273.42 263.71C1271.99 263.154 1271.03 265.383 1272.45 265.923C1279.29 268.554 1285.94 271.301 1291.59 275.556C1292.75 276.462 1294.28 274.452 1293.12 273.571Z" fill="#DDDDDD"/>
<path d="M1266.53 270.588C1264.05 268.719 1261.84 266.557 1259.14 264.912C1258.61 264.576 1257.77 264.805 1257.36 265.342C1256.92 265.888 1257.06 266.596 1257.61 266.922C1260.31 268.568 1262.52 270.729 1265 272.598C1265.5 272.968 1266.4 272.671 1266.79 272.168C1267.22 271.581 1267.02 270.967 1266.53 270.588Z" fill="#DDDDDD"/>
<path d="M1246.3 236.699C1266.35 246.864 1296.68 251.107 1318.97 236.554C1319.61 236.146 1319.51 235.362 1319.2 234.917C1315.54 229.697 1308.67 226.641 1302.61 224.088C1295.91 221.269 1289.23 219.214 1281.56 218.584C1273.87 217.947 1266.75 218.72 1259.15 221.469C1255.24 222.886 1251.44 224.626 1247.67 226.446C1246 227.256 1244.32 228.092 1242.65 228.918C1241.47 229.507 1240.02 229.954 1239.17 230.938C1238.84 231.315 1238.8 232.031 1239.18 232.341C1241.33 234.095 1243.93 235.211 1246.3 236.699C1247.57 237.493 1249.11 235.499 1247.84 234.705C1245.66 233.323 1243.18 232.308 1241.18 230.72C1241.18 231.196 1241.19 231.647 1241.18 232.123C1241.72 231.507 1244.09 230.696 1245.01 230.25C1246.59 229.47 1248.16 228.689 1249.74 227.941C1253.14 226.319 1256.57 224.777 1260.11 223.501C1267.38 220.874 1274.27 220.309 1281.59 220.947C1288.89 221.594 1295.27 223.656 1301.65 226.374C1307.35 228.805 1313.73 231.679 1317.17 236.573C1317.25 236.019 1317.32 235.491 1317.4 234.937C1306.67 241.931 1293.65 243.952 1281.59 243.391C1269.58 242.828 1257.88 239.812 1247.85 234.721C1246.49 234.03 1244.95 236.025 1246.3 236.699Z" fill="#DDDDDD"/>
<path d="M1242.9 232.601C1256.56 231.379 1270.08 231.592 1283.43 232.617C1288.93 233.045 1294.49 233.152 1300.01 233.432C1305.55 233.719 1311.3 234.185 1316.16 236.31C1317.54 236.91 1319.09 234.932 1317.7 234.316C1308.16 230.139 1296.29 231.309 1285.61 230.453C1271.67 229.316 1257.53 229.01 1243.25 230.294C1241.63 230.445 1241.28 232.752 1242.9 232.601Z" fill="#DDDDDD"/>
<path d="M1309.43 236.161C1295.6 237.983 1281.42 240.108 1268 238.085C1266.45 237.847 1265.46 240.069 1267.03 240.298C1280.91 242.398 1295.43 240.281 1309.75 238.404C1311.39 238.187 1311.05 235.953 1309.43 236.161Z" fill="#DDDDDD"/>
<path d="M1291.74 226.04C1284.02 224.764 1276.14 225.211 1268.11 225.847C1266.48 225.981 1266.14 228.288 1267.77 228.153C1275.55 227.538 1283.26 227.033 1290.77 228.253C1292.33 228.507 1293.3 226.294 1291.74 226.04Z" fill="#DDDDDD"/>
<path d="M1265.03 234.489C1261.63 233.936 1258.35 233.024 1254.86 232.754C1254.21 232.711 1253.49 233.295 1253.41 233.89C1253.34 234.559 1253.81 235.004 1254.49 235.07C1255.36 235.128 1256 235.212 1256.78 235.331C1257.61 235.464 1258.43 235.623 1259.25 235.781C1260.84 236.099 1262.4 236.452 1264.02 236.72C1264.65 236.83 1265.43 236.571 1265.67 235.919C1265.93 235.357 1265.71 234.612 1265.03 234.489Z" fill="#DDDDDD"/>
</g>
<path d="M852.456 242.625C852.456 242.023 852.367 241.486 852.188 241.014C852.008 240.525 851.683 240.078 851.211 239.671C850.739 239.264 850.072 238.857 849.209 238.45C848.346 238.027 847.215 237.596 845.815 237.156C844.22 236.635 842.699 236.049 841.25 235.398C839.818 234.731 838.54 233.958 837.417 233.079C836.294 232.2 835.407 231.175 834.756 230.003C834.121 228.831 833.804 227.464 833.804 225.901C833.804 224.388 834.137 223.021 834.805 221.8C835.472 220.579 836.408 219.537 837.612 218.675C838.817 217.796 840.233 217.129 841.86 216.673C843.488 216.201 845.278 215.965 847.231 215.965C849.836 215.965 852.122 216.429 854.092 217.356C856.077 218.268 857.624 219.554 858.73 221.214C859.837 222.858 860.391 224.77 860.391 226.951H852.48C852.48 225.991 852.277 225.145 851.87 224.412C851.479 223.663 850.877 223.077 850.063 222.654C849.266 222.231 848.265 222.02 847.061 222.02C845.889 222.02 844.904 222.199 844.106 222.557C843.325 222.898 842.731 223.37 842.324 223.973C841.934 224.575 841.738 225.234 841.738 225.95C841.738 226.52 841.885 227.041 842.178 227.513C842.487 227.968 842.926 228.4 843.496 228.807C844.082 229.197 844.798 229.572 845.645 229.93C846.491 230.288 847.459 230.63 848.55 230.955C850.454 231.557 852.139 232.225 853.604 232.957C855.085 233.689 856.33 234.52 857.339 235.447C858.348 236.375 859.105 237.425 859.609 238.597C860.13 239.769 860.391 241.095 860.391 242.576C860.391 244.155 860.081 245.555 859.463 246.775C858.861 247.996 857.982 249.038 856.826 249.9C855.687 250.747 854.32 251.39 852.725 251.829C851.13 252.269 849.347 252.488 847.378 252.488C845.588 252.488 843.822 252.26 842.08 251.805C840.339 251.333 838.76 250.617 837.344 249.656C835.944 248.696 834.821 247.475 833.975 245.994C833.145 244.497 832.729 242.723 832.729 240.672H840.688C840.688 241.746 840.843 242.658 841.152 243.406C841.462 244.139 841.901 244.733 842.471 245.188C843.057 245.644 843.765 245.97 844.595 246.165C845.425 246.36 846.353 246.458 847.378 246.458C848.566 246.458 849.526 246.295 850.259 245.97C851.007 245.628 851.561 245.164 851.919 244.578C852.277 243.992 852.456 243.341 852.456 242.625ZM878.115 225.584V230.931H862.441V225.584H878.115ZM866.03 219.041H873.672V243.724C873.672 244.456 873.761 245.018 873.94 245.408C874.119 245.799 874.412 246.076 874.819 246.238C875.226 246.385 875.747 246.458 876.382 246.458C876.838 246.458 877.228 246.442 877.554 246.409C877.879 246.377 878.18 246.336 878.457 246.287V251.805C877.806 252.016 877.114 252.179 876.382 252.293C875.649 252.423 874.852 252.488 873.989 252.488C872.345 252.488 870.921 252.22 869.717 251.683C868.529 251.146 867.617 250.299 866.982 249.144C866.348 247.972 866.03 246.45 866.03 244.578V219.041ZM889.736 248.948L896.646 225.584H904.849L894.229 255.955C894.001 256.622 893.691 257.339 893.301 258.104C892.926 258.868 892.414 259.601 891.763 260.301C891.128 261.001 890.314 261.57 889.321 262.01C888.328 262.449 887.108 262.669 885.659 262.669C884.927 262.669 884.357 262.628 883.95 262.547C883.56 262.482 883.039 262.368 882.388 262.205L882.363 256.663C882.575 256.663 882.762 256.663 882.925 256.663C883.104 256.679 883.283 256.688 883.462 256.688C884.373 256.688 885.106 256.59 885.659 256.395C886.229 256.199 886.668 255.906 886.978 255.516C887.303 255.141 887.563 254.661 887.759 254.075L889.736 248.948ZM887.417 225.584L892.886 244.383L893.813 252.464L888.662 252.732L879.214 225.584H887.417ZM915.347 214.5V252H907.705V214.5H915.347ZM933.291 252.488C931.191 252.488 929.312 252.155 927.651 251.487C925.991 250.82 924.583 249.9 923.428 248.729C922.288 247.54 921.418 246.173 920.815 244.627C920.213 243.081 919.912 241.429 919.912 239.671V238.743C919.912 236.774 920.189 234.959 920.742 233.299C921.296 231.639 922.101 230.198 923.159 228.978C924.233 227.741 925.552 226.788 927.114 226.121C928.677 225.438 930.459 225.096 932.461 225.096C934.333 225.096 936.001 225.405 937.466 226.023C938.931 226.626 940.168 227.496 941.177 228.636C942.186 229.759 942.951 231.118 943.472 232.713C944.009 234.292 944.277 236.066 944.277 238.035V241.16H922.988V236.253H936.807V235.667C936.807 234.739 936.636 233.925 936.294 233.226C935.968 232.526 935.48 231.989 934.829 231.614C934.194 231.224 933.389 231.028 932.412 231.028C931.484 231.028 930.711 231.224 930.093 231.614C929.474 232.005 928.978 232.558 928.604 233.274C928.245 233.974 927.985 234.796 927.822 235.74C927.66 236.668 927.578 237.669 927.578 238.743V239.671C927.578 240.696 927.716 241.632 927.993 242.479C928.27 243.325 928.677 244.049 929.214 244.651C929.751 245.254 930.402 245.726 931.167 246.067C931.932 246.409 932.803 246.58 933.779 246.58C934.984 246.58 936.131 246.352 937.222 245.896C938.312 245.424 939.256 244.692 940.054 243.699L943.618 247.776C943.081 248.558 942.324 249.314 941.348 250.047C940.387 250.763 939.232 251.349 937.881 251.805C936.53 252.26 935 252.488 933.291 252.488ZM989.468 233.226V247.557C988.882 248.224 987.987 248.94 986.782 249.705C985.594 250.47 984.072 251.129 982.217 251.683C980.361 252.22 978.148 252.488 975.576 252.488C973.249 252.488 971.133 252.114 969.229 251.365C967.324 250.6 965.688 249.485 964.321 248.021C962.954 246.539 961.896 244.733 961.147 242.601C960.415 240.468 960.049 238.027 960.049 235.276V233.177C960.049 230.426 960.415 227.985 961.147 225.853C961.88 223.72 962.913 221.922 964.248 220.457C965.583 218.976 967.17 217.853 969.009 217.088C970.848 216.323 972.882 215.94 975.112 215.94C978.286 215.94 980.882 216.453 982.9 217.479C984.919 218.488 986.449 219.887 987.49 221.678C988.548 223.468 989.199 225.527 989.443 227.854H981.777C981.615 226.666 981.289 225.641 980.801 224.778C980.329 223.916 979.653 223.257 978.774 222.801C977.896 222.329 976.756 222.093 975.356 222.093C974.233 222.093 973.216 222.329 972.305 222.801C971.41 223.257 970.653 223.948 970.034 224.876C969.416 225.804 968.944 226.959 968.618 228.343C968.293 229.71 968.13 231.305 968.13 233.128V235.276C968.13 237.099 968.293 238.702 968.618 240.086C968.96 241.469 969.456 242.625 970.107 243.553C970.758 244.464 971.58 245.156 972.573 245.628C973.582 246.1 974.754 246.336 976.089 246.336C977.131 246.336 978.009 246.255 978.726 246.092C979.442 245.913 980.028 245.693 980.483 245.433C980.939 245.156 981.281 244.904 981.509 244.676V238.768H975.186V233.226H989.468ZM1010.02 245.628V225.584H1017.69V252H1010.51L1010.02 245.628ZM1010.83 240.232L1012.93 240.184C1012.93 241.958 1012.72 243.593 1012.29 245.091C1011.89 246.588 1011.27 247.89 1010.44 248.997C1009.63 250.104 1008.61 250.966 1007.39 251.585C1006.18 252.187 1004.78 252.488 1003.16 252.488C1001.86 252.488 1000.67 252.309 999.575 251.951C998.501 251.577 997.573 250.999 996.792 250.218C996.011 249.42 995.409 248.403 994.985 247.166C994.562 245.913 994.351 244.415 994.351 242.674V225.584H1001.97V242.723C1001.97 243.406 1002.05 243.992 1002.21 244.48C1002.39 244.952 1002.63 245.343 1002.92 245.652C1003.23 245.962 1003.6 246.189 1004.04 246.336C1004.5 246.482 1005 246.556 1005.53 246.556C1006.88 246.556 1007.94 246.279 1008.71 245.726C1009.49 245.156 1010.03 244.399 1010.34 243.455C1010.67 242.495 1010.83 241.421 1010.83 240.232ZM1030.68 225.584V252H1023.04V225.584H1030.68ZM1022.57 218.748C1022.57 217.641 1022.96 216.738 1023.75 216.038C1024.53 215.322 1025.55 214.964 1026.82 214.964C1028.09 214.964 1029.12 215.322 1029.9 216.038C1030.69 216.738 1031.09 217.641 1031.09 218.748C1031.09 219.839 1030.69 220.742 1029.9 221.458C1029.12 222.158 1028.09 222.508 1026.82 222.508C1025.55 222.508 1024.53 222.158 1023.75 221.458C1022.96 220.742 1022.57 219.839 1022.57 218.748ZM1051.55 246.092V214.5H1059.22V252H1052.33L1051.55 246.092ZM1035.1 239.109V238.597C1035.1 236.595 1035.32 234.772 1035.76 233.128C1036.21 231.468 1036.87 230.044 1037.73 228.855C1038.61 227.651 1039.7 226.723 1040.98 226.072C1042.27 225.421 1043.74 225.096 1045.4 225.096C1046.93 225.096 1048.26 225.438 1049.4 226.121C1050.54 226.788 1051.51 227.732 1052.31 228.953C1053.12 230.158 1053.78 231.582 1054.29 233.226C1054.79 234.853 1055.17 236.619 1055.43 238.523V239.402C1055.19 241.225 1054.81 242.926 1054.29 244.505C1053.78 246.084 1053.12 247.475 1052.31 248.68C1051.51 249.868 1050.54 250.804 1049.38 251.487C1048.24 252.155 1046.9 252.488 1045.35 252.488C1043.69 252.488 1042.22 252.155 1040.93 251.487C1039.66 250.82 1038.6 249.884 1037.73 248.68C1036.87 247.475 1036.21 246.059 1035.76 244.432C1035.32 242.804 1035.1 241.03 1035.1 239.109ZM1042.71 238.597V239.109C1042.71 240.151 1042.79 241.119 1042.93 242.015C1043.1 242.91 1043.36 243.699 1043.72 244.383C1044.07 245.066 1044.55 245.604 1045.13 245.994C1045.72 246.368 1046.43 246.556 1047.28 246.556C1048.42 246.556 1049.36 246.295 1050.09 245.774C1050.82 245.237 1051.37 244.497 1051.75 243.553C1052.12 242.609 1052.32 241.51 1052.33 240.257V237.693C1052.33 236.652 1052.23 235.716 1052.02 234.886C1051.81 234.056 1051.49 233.356 1051.06 232.786C1050.66 232.216 1050.14 231.785 1049.53 231.492C1048.91 231.183 1048.18 231.028 1047.33 231.028C1046.5 231.028 1045.79 231.224 1045.21 231.614C1044.62 231.989 1044.14 232.518 1043.76 233.201C1043.41 233.885 1043.14 234.69 1042.96 235.618C1042.8 236.53 1042.71 237.522 1042.71 238.597ZM1076.75 252.488C1074.65 252.488 1072.77 252.155 1071.11 251.487C1069.45 250.82 1068.04 249.9 1066.88 248.729C1065.75 247.54 1064.87 246.173 1064.27 244.627C1063.67 243.081 1063.37 241.429 1063.37 239.671V238.743C1063.37 236.774 1063.65 234.959 1064.2 233.299C1064.75 231.639 1065.56 230.198 1066.62 228.978C1067.69 227.741 1069.01 226.788 1070.57 226.121C1072.13 225.438 1073.92 225.096 1075.92 225.096C1077.79 225.096 1079.46 225.405 1080.92 226.023C1082.39 226.626 1083.62 227.496 1084.63 228.636C1085.64 229.759 1086.41 231.118 1086.93 232.713C1087.47 234.292 1087.73 236.066 1087.73 238.035V241.16H1066.45V236.253H1080.26V235.667C1080.26 234.739 1080.09 233.925 1079.75 233.226C1079.43 232.526 1078.94 231.989 1078.29 231.614C1077.65 231.224 1076.85 231.028 1075.87 231.028C1074.94 231.028 1074.17 231.224 1073.55 231.614C1072.93 232.005 1072.43 232.558 1072.06 233.274C1071.7 233.974 1071.44 234.796 1071.28 235.74C1071.12 236.668 1071.04 237.669 1071.04 238.743V239.671C1071.04 240.696 1071.17 241.632 1071.45 242.479C1071.73 243.325 1072.13 244.049 1072.67 244.651C1073.21 245.254 1073.86 245.726 1074.62 246.067C1075.39 246.409 1076.26 246.58 1077.24 246.58C1078.44 246.58 1079.59 246.352 1080.68 245.896C1081.77 245.424 1082.71 244.692 1083.51 243.699L1087.08 247.776C1086.54 248.558 1085.78 249.314 1084.8 250.047C1083.84 250.763 1082.69 251.349 1081.34 251.805C1079.99 252.26 1078.46 252.488 1076.75 252.488Z" fill="#274C5B"/>
</svg>
