<svg width="27" height="24" viewBox="0 0 27 24" fill="none" xmlns="http://www.w3.org/2000/svg">
<path d="M11.5689 23.0001C12.2439 23.0001 12.7911 22.4529 12.7911 21.7779C12.7911 21.1029 12.2439 20.5557 11.5689 20.5557C10.8939 20.5557 10.3467 21.1029 10.3467 21.7779C10.3467 22.4529 10.8939 23.0001 11.5689 23.0001Z" fill="white"/>
<path fill-rule="evenodd" clip-rule="evenodd" d="M11.5689 21.3057C11.3081 21.3057 11.0967 21.5171 11.0967 21.7779C11.0967 22.0387 11.3081 22.2501 11.5689 22.2501C11.8297 22.2501 12.0411 22.0387 12.0411 21.7779C12.0411 21.5171 11.8297 21.3057 11.5689 21.3057ZM9.59668 21.7779C9.59668 20.6887 10.4797 19.8057 11.5689 19.8057C12.6581 19.8057 13.5411 20.6887 13.5411 21.7779C13.5411 22.8671 12.6581 23.7501 11.5689 23.7501C10.4797 23.7501 9.59668 22.8671 9.59668 21.7779Z" fill="white"/>
<path d="M20.1246 23.0001C20.7996 23.0001 21.3468 22.4529 21.3468 21.7779C21.3468 21.1029 20.7996 20.5557 20.1246 20.5557C19.4496 20.5557 18.9023 21.1029 18.9023 21.7779C18.9023 22.4529 19.4496 23.0001 20.1246 23.0001Z" fill="white"/>
<path fill-rule="evenodd" clip-rule="evenodd" d="M20.1246 21.3057C19.8638 21.3057 19.6523 21.5171 19.6523 21.7779C19.6523 22.0387 19.8638 22.2501 20.1246 22.2501C20.3854 22.2501 20.5968 22.0387 20.5968 21.7779C20.5968 21.5171 20.3854 21.3057 20.1246 21.3057ZM18.1523 21.7779C18.1523 20.6887 19.0353 19.8057 20.1246 19.8057C21.2138 19.8057 22.0968 20.6887 22.0968 21.7779C22.0968 22.8671 21.2138 23.7501 20.1246 23.7501C19.0353 23.7501 18.1523 22.8671 18.1523 21.7779Z" fill="white"/>
<path fill-rule="evenodd" clip-rule="evenodd" d="M0.791016 1C0.791016 0.447715 1.23873 0 1.79102 0H5.57291C6.05815 0 6.47337 0.348357 6.5577 0.826215L9.24831 16.0731H23.5369C24.0892 16.0731 24.5369 16.5208 24.5369 17.0731C24.5369 17.6253 24.0892 18.0731 23.5369 18.0731H8.40933C7.92409 18.0731 7.50888 17.7247 7.42455 17.2468L4.73393 2H1.79102C1.23873 2 0.791016 1.55228 0.791016 1Z" fill="white"/>
<path fill-rule="evenodd" clip-rule="evenodd" d="M5.3584 3.83594C5.3584 3.28365 5.80611 2.83594 6.3584 2.83594L24.851 2.83594C24.8511 2.83594 24.8509 2.83594 24.851 2.83594C25.0688 2.83589 25.2841 2.88413 25.481 2.97719C25.6781 3.07036 25.852 3.20612 25.9903 3.37466C26.1285 3.5432 26.2276 3.74034 26.2805 3.95185C26.3333 4.1633 26.3385 4.38384 26.2957 4.59757C26.2957 4.59761 26.2957 4.59752 26.2957 4.59757L24.5939 13.1068C24.527 13.4408 24.3465 13.7414 24.083 13.9573C23.8195 14.1731 23.4893 14.2909 23.1487 14.2907L23.1424 14.2907L7.89521 14.1836C7.34294 14.1798 6.89838 13.7289 6.90225 13.1766C6.90613 12.6244 7.35698 12.1798 7.90925 12.1837L22.7181 12.2876L24.2084 4.83594H6.3584C5.80611 4.83594 5.3584 4.38822 5.3584 3.83594Z" fill="white"/>
</svg>
